<mxfile host="app.diagrams.net" modified="2023-09-22T06:46:29.436Z" agent="Mozilla/5.0 (Windows NT 10.0; Win64; x64; rv:109.0) Gecko/20100101 Firefox/117.0" etag="82PD_IHoajy2XRcHXUt0" version="21.8.0" type="device">
  <diagram name="Page-1" id="y5EkqkRGudmOyvRt5nkQ">
    <mxGraphModel dx="2412" dy="1926" grid="1" gridSize="10" guides="1" tooltips="1" connect="1" arrows="1" fold="1" page="1" pageScale="1" pageWidth="850" pageHeight="1100" math="0" shadow="0">
      <root>
        <mxCell id="0" />
        <mxCell id="1" parent="0" />
        <mxCell id="B72tMtw-QqEQN7ghL_KD-3" style="edgeStyle=orthogonalEdgeStyle;rounded=0;orthogonalLoop=1;jettySize=auto;html=1;entryX=0;entryY=0.5;entryDx=0;entryDy=0;" parent="1" source="B72tMtw-QqEQN7ghL_KD-1" target="B72tMtw-QqEQN7ghL_KD-2" edge="1">
          <mxGeometry relative="1" as="geometry" />
        </mxCell>
        <mxCell id="B72tMtw-QqEQN7ghL_KD-1" value="Scan button" style="rounded=0;whiteSpace=wrap;html=1;" parent="1" vertex="1">
          <mxGeometry x="-290" y="150" width="120" height="60" as="geometry" />
        </mxCell>
        <mxCell id="B72tMtw-QqEQN7ghL_KD-5" style="edgeStyle=orthogonalEdgeStyle;rounded=0;orthogonalLoop=1;jettySize=auto;html=1;exitX=1;exitY=1;exitDx=0;exitDy=0;entryX=1;entryY=0;entryDx=0;entryDy=0;" parent="1" source="B72tMtw-QqEQN7ghL_KD-2" target="B72tMtw-QqEQN7ghL_KD-4" edge="1">
          <mxGeometry relative="1" as="geometry" />
        </mxCell>
        <mxCell id="B72tMtw-QqEQN7ghL_KD-7" value="No connection" style="edgeLabel;html=1;align=center;verticalAlign=middle;resizable=0;points=[];" parent="B72tMtw-QqEQN7ghL_KD-5" vertex="1" connectable="0">
          <mxGeometry x="-0.2783" y="1" relative="1" as="geometry">
            <mxPoint as="offset" />
          </mxGeometry>
        </mxCell>
        <mxCell id="B72tMtw-QqEQN7ghL_KD-19" style="edgeStyle=orthogonalEdgeStyle;rounded=0;orthogonalLoop=1;jettySize=auto;html=1;" parent="1" source="B72tMtw-QqEQN7ghL_KD-2" target="B72tMtw-QqEQN7ghL_KD-13" edge="1">
          <mxGeometry relative="1" as="geometry" />
        </mxCell>
        <mxCell id="B72tMtw-QqEQN7ghL_KD-20" value="connected" style="edgeLabel;html=1;align=center;verticalAlign=middle;resizable=0;points=[];" parent="B72tMtw-QqEQN7ghL_KD-19" vertex="1" connectable="0">
          <mxGeometry x="-0.1333" y="3" relative="1" as="geometry">
            <mxPoint as="offset" />
          </mxGeometry>
        </mxCell>
        <mxCell id="B72tMtw-QqEQN7ghL_KD-2" value="Check connection&lt;br&gt;of Yumi" style="ellipse;whiteSpace=wrap;html=1;" parent="1" vertex="1">
          <mxGeometry x="-60" y="140" width="120" height="80" as="geometry" />
        </mxCell>
        <mxCell id="B72tMtw-QqEQN7ghL_KD-6" style="edgeStyle=orthogonalEdgeStyle;rounded=0;orthogonalLoop=1;jettySize=auto;html=1;exitX=0;exitY=0;exitDx=0;exitDy=0;entryX=0;entryY=1;entryDx=0;entryDy=0;curved=1;" parent="1" source="B72tMtw-QqEQN7ghL_KD-4" target="B72tMtw-QqEQN7ghL_KD-2" edge="1">
          <mxGeometry relative="1" as="geometry" />
        </mxCell>
        <mxCell id="B72tMtw-QqEQN7ghL_KD-8" value="success" style="edgeLabel;html=1;align=center;verticalAlign=middle;resizable=0;points=[];" parent="B72tMtw-QqEQN7ghL_KD-6" vertex="1" connectable="0">
          <mxGeometry x="0.2141" y="5" relative="1" as="geometry">
            <mxPoint as="offset" />
          </mxGeometry>
        </mxCell>
        <mxCell id="B72tMtw-QqEQN7ghL_KD-10" style="edgeStyle=orthogonalEdgeStyle;rounded=0;orthogonalLoop=1;jettySize=auto;html=1;entryX=0.5;entryY=0;entryDx=0;entryDy=0;" parent="1" source="B72tMtw-QqEQN7ghL_KD-4" target="B72tMtw-QqEQN7ghL_KD-9" edge="1">
          <mxGeometry relative="1" as="geometry" />
        </mxCell>
        <mxCell id="B72tMtw-QqEQN7ghL_KD-4" value="Connect Yumi" style="ellipse;whiteSpace=wrap;html=1;" parent="1" vertex="1">
          <mxGeometry x="-60" y="290" width="120" height="80" as="geometry" />
        </mxCell>
        <mxCell id="B72tMtw-QqEQN7ghL_KD-9" value="Display log: fail" style="rounded=0;whiteSpace=wrap;html=1;" parent="1" vertex="1">
          <mxGeometry x="-60" y="420" width="120" height="60" as="geometry" />
        </mxCell>
        <mxCell id="B72tMtw-QqEQN7ghL_KD-11" style="edgeStyle=orthogonalEdgeStyle;rounded=0;orthogonalLoop=1;jettySize=auto;html=1;exitX=1;exitY=1;exitDx=0;exitDy=0;entryX=1;entryY=0;entryDx=0;entryDy=0;" parent="1" source="B72tMtw-QqEQN7ghL_KD-13" target="B72tMtw-QqEQN7ghL_KD-17" edge="1">
          <mxGeometry relative="1" as="geometry" />
        </mxCell>
        <mxCell id="B72tMtw-QqEQN7ghL_KD-12" value="No connection" style="edgeLabel;html=1;align=center;verticalAlign=middle;resizable=0;points=[];" parent="B72tMtw-QqEQN7ghL_KD-11" vertex="1" connectable="0">
          <mxGeometry x="-0.2783" y="1" relative="1" as="geometry">
            <mxPoint as="offset" />
          </mxGeometry>
        </mxCell>
        <mxCell id="B72tMtw-QqEQN7ghL_KD-22" style="edgeStyle=orthogonalEdgeStyle;rounded=0;orthogonalLoop=1;jettySize=auto;html=1;" parent="1" source="B72tMtw-QqEQN7ghL_KD-13" target="B72tMtw-QqEQN7ghL_KD-21" edge="1">
          <mxGeometry relative="1" as="geometry" />
        </mxCell>
        <mxCell id="B72tMtw-QqEQN7ghL_KD-23" value="connected" style="edgeLabel;html=1;align=center;verticalAlign=middle;resizable=0;points=[];" parent="B72tMtw-QqEQN7ghL_KD-22" vertex="1" connectable="0">
          <mxGeometry x="-0.125" y="1" relative="1" as="geometry">
            <mxPoint as="offset" />
          </mxGeometry>
        </mxCell>
        <mxCell id="B72tMtw-QqEQN7ghL_KD-13" value="Check connection&lt;br&gt;of Laser" style="ellipse;whiteSpace=wrap;html=1;" parent="1" vertex="1">
          <mxGeometry x="180" y="140" width="120" height="80" as="geometry" />
        </mxCell>
        <mxCell id="B72tMtw-QqEQN7ghL_KD-14" style="edgeStyle=orthogonalEdgeStyle;rounded=0;orthogonalLoop=1;jettySize=auto;html=1;exitX=0;exitY=0;exitDx=0;exitDy=0;entryX=0;entryY=1;entryDx=0;entryDy=0;curved=1;" parent="1" source="B72tMtw-QqEQN7ghL_KD-17" target="B72tMtw-QqEQN7ghL_KD-13" edge="1">
          <mxGeometry relative="1" as="geometry" />
        </mxCell>
        <mxCell id="B72tMtw-QqEQN7ghL_KD-15" value="success" style="edgeLabel;html=1;align=center;verticalAlign=middle;resizable=0;points=[];" parent="B72tMtw-QqEQN7ghL_KD-14" vertex="1" connectable="0">
          <mxGeometry x="0.2141" y="5" relative="1" as="geometry">
            <mxPoint as="offset" />
          </mxGeometry>
        </mxCell>
        <mxCell id="B72tMtw-QqEQN7ghL_KD-16" style="edgeStyle=orthogonalEdgeStyle;rounded=0;orthogonalLoop=1;jettySize=auto;html=1;entryX=0.5;entryY=0;entryDx=0;entryDy=0;" parent="1" source="B72tMtw-QqEQN7ghL_KD-17" target="B72tMtw-QqEQN7ghL_KD-18" edge="1">
          <mxGeometry relative="1" as="geometry" />
        </mxCell>
        <mxCell id="B72tMtw-QqEQN7ghL_KD-17" value="Connect Laser" style="ellipse;whiteSpace=wrap;html=1;" parent="1" vertex="1">
          <mxGeometry x="180" y="290" width="120" height="80" as="geometry" />
        </mxCell>
        <mxCell id="B72tMtw-QqEQN7ghL_KD-18" value="Display log: fail" style="rounded=0;whiteSpace=wrap;html=1;" parent="1" vertex="1">
          <mxGeometry x="180" y="420" width="120" height="60" as="geometry" />
        </mxCell>
        <mxCell id="B72tMtw-QqEQN7ghL_KD-25" style="edgeStyle=orthogonalEdgeStyle;rounded=0;orthogonalLoop=1;jettySize=auto;html=1;exitX=1;exitY=0.5;exitDx=0;exitDy=0;" parent="1" source="B72tMtw-QqEQN7ghL_KD-21" target="B72tMtw-QqEQN7ghL_KD-24" edge="1">
          <mxGeometry relative="1" as="geometry" />
        </mxCell>
        <mxCell id="B72tMtw-QqEQN7ghL_KD-21" value="Move Yumi to default position (Initial position)" style="ellipse;whiteSpace=wrap;html=1;" parent="1" vertex="1">
          <mxGeometry x="410" y="140" width="140" height="80" as="geometry" />
        </mxCell>
        <mxCell id="B72tMtw-QqEQN7ghL_KD-32" style="edgeStyle=orthogonalEdgeStyle;rounded=0;orthogonalLoop=1;jettySize=auto;html=1;entryX=0.5;entryY=0;entryDx=0;entryDy=0;" parent="1" source="B72tMtw-QqEQN7ghL_KD-24" target="B72tMtw-QqEQN7ghL_KD-26" edge="1">
          <mxGeometry relative="1" as="geometry" />
        </mxCell>
        <mxCell id="B72tMtw-QqEQN7ghL_KD-34" value="Not end of table" style="edgeLabel;html=1;align=center;verticalAlign=middle;resizable=0;points=[];" parent="B72tMtw-QqEQN7ghL_KD-32" vertex="1" connectable="0">
          <mxGeometry x="0.1333" y="3" relative="1" as="geometry">
            <mxPoint as="offset" />
          </mxGeometry>
        </mxCell>
        <mxCell id="B72tMtw-QqEQN7ghL_KD-24" value="read position value from a position table" style="ellipse;whiteSpace=wrap;html=1;" parent="1" vertex="1">
          <mxGeometry x="610" y="140" width="120" height="80" as="geometry" />
        </mxCell>
        <mxCell id="B72tMtw-QqEQN7ghL_KD-29" style="edgeStyle=orthogonalEdgeStyle;rounded=0;orthogonalLoop=1;jettySize=auto;html=1;exitX=1;exitY=0.5;exitDx=0;exitDy=0;entryX=0;entryY=0.5;entryDx=0;entryDy=0;" parent="1" source="B72tMtw-QqEQN7ghL_KD-24" target="B72tMtw-QqEQN7ghL_KD-28" edge="1">
          <mxGeometry relative="1" as="geometry" />
        </mxCell>
        <mxCell id="B72tMtw-QqEQN7ghL_KD-30" value="end of table" style="edgeLabel;html=1;align=center;verticalAlign=middle;resizable=0;points=[];" parent="B72tMtw-QqEQN7ghL_KD-29" vertex="1" connectable="0">
          <mxGeometry x="-0.425" y="2" relative="1" as="geometry">
            <mxPoint x="17" y="2" as="offset" />
          </mxGeometry>
        </mxCell>
        <mxCell id="B72tMtw-QqEQN7ghL_KD-35" style="edgeStyle=orthogonalEdgeStyle;rounded=0;orthogonalLoop=1;jettySize=auto;html=1;entryX=0.5;entryY=0;entryDx=0;entryDy=0;" parent="1" source="B72tMtw-QqEQN7ghL_KD-26" target="B72tMtw-QqEQN7ghL_KD-31" edge="1">
          <mxGeometry relative="1" as="geometry" />
        </mxCell>
        <mxCell id="B72tMtw-QqEQN7ghL_KD-26" value="move end-effector to&amp;nbsp; the position" style="ellipse;whiteSpace=wrap;html=1;" parent="1" vertex="1">
          <mxGeometry x="610" y="280" width="120" height="80" as="geometry" />
        </mxCell>
        <mxCell id="355qwk3pFSdDTDoqX-rl-2" style="edgeStyle=orthogonalEdgeStyle;rounded=0;orthogonalLoop=1;jettySize=auto;html=1;" edge="1" parent="1" source="B72tMtw-QqEQN7ghL_KD-28" target="355qwk3pFSdDTDoqX-rl-1">
          <mxGeometry relative="1" as="geometry" />
        </mxCell>
        <mxCell id="B72tMtw-QqEQN7ghL_KD-28" value="3D reconstruction" style="ellipse;whiteSpace=wrap;html=1;" parent="1" vertex="1">
          <mxGeometry x="840" y="140" width="120" height="80" as="geometry" />
        </mxCell>
        <mxCell id="B72tMtw-QqEQN7ghL_KD-36" style="edgeStyle=orthogonalEdgeStyle;rounded=0;orthogonalLoop=1;jettySize=auto;html=1;entryX=0;entryY=1;entryDx=0;entryDy=0;" parent="1" source="B72tMtw-QqEQN7ghL_KD-31" target="B72tMtw-QqEQN7ghL_KD-24" edge="1">
          <mxGeometry relative="1" as="geometry">
            <Array as="points">
              <mxPoint x="570" y="450" />
              <mxPoint x="570" y="208" />
            </Array>
          </mxGeometry>
        </mxCell>
        <mxCell id="B72tMtw-QqEQN7ghL_KD-31" value="read laser data and store it" style="ellipse;whiteSpace=wrap;html=1;" parent="1" vertex="1">
          <mxGeometry x="610" y="410" width="120" height="80" as="geometry" />
        </mxCell>
        <mxCell id="B72tMtw-QqEQN7ghL_KD-39" style="edgeStyle=orthogonalEdgeStyle;rounded=0;orthogonalLoop=1;jettySize=auto;html=1;entryX=0;entryY=0.5;entryDx=0;entryDy=0;" parent="1" source="B72tMtw-QqEQN7ghL_KD-37" target="B72tMtw-QqEQN7ghL_KD-38" edge="1">
          <mxGeometry relative="1" as="geometry" />
        </mxCell>
        <mxCell id="B72tMtw-QqEQN7ghL_KD-40" value="will resample" style="edgeLabel;html=1;align=center;verticalAlign=middle;resizable=0;points=[];" parent="B72tMtw-QqEQN7ghL_KD-39" vertex="1" connectable="0">
          <mxGeometry x="-0.1857" y="2" relative="1" as="geometry">
            <mxPoint as="offset" />
          </mxGeometry>
        </mxCell>
        <mxCell id="B72tMtw-QqEQN7ghL_KD-37" value="User input" style="rounded=0;whiteSpace=wrap;html=1;" parent="1" vertex="1">
          <mxGeometry x="220" y="20" width="120" height="60" as="geometry" />
        </mxCell>
        <mxCell id="B72tMtw-QqEQN7ghL_KD-41" style="edgeStyle=orthogonalEdgeStyle;rounded=0;orthogonalLoop=1;jettySize=auto;html=1;entryX=0.5;entryY=0;entryDx=0;entryDy=0;" parent="1" source="B72tMtw-QqEQN7ghL_KD-38" target="B72tMtw-QqEQN7ghL_KD-24" edge="1">
          <mxGeometry relative="1" as="geometry">
            <mxPoint x="670" y="40" as="targetPoint" />
            <Array as="points">
              <mxPoint x="670" y="50" />
            </Array>
          </mxGeometry>
        </mxCell>
        <mxCell id="B72tMtw-QqEQN7ghL_KD-38" value="resample the position table" style="ellipse;whiteSpace=wrap;html=1;" parent="1" vertex="1">
          <mxGeometry x="460" y="10" width="120" height="80" as="geometry" />
        </mxCell>
        <mxCell id="B72tMtw-QqEQN7ghL_KD-42" style="edgeStyle=orthogonalEdgeStyle;rounded=0;orthogonalLoop=1;jettySize=auto;html=1;entryX=0;entryY=0.5;entryDx=0;entryDy=0;" parent="1" source="B72tMtw-QqEQN7ghL_KD-44" target="B72tMtw-QqEQN7ghL_KD-45" edge="1">
          <mxGeometry relative="1" as="geometry" />
        </mxCell>
        <mxCell id="B72tMtw-QqEQN7ghL_KD-43" value="will resample" style="edgeLabel;html=1;align=center;verticalAlign=middle;resizable=0;points=[];" parent="B72tMtw-QqEQN7ghL_KD-42" vertex="1" connectable="0">
          <mxGeometry x="-0.1857" y="2" relative="1" as="geometry">
            <mxPoint as="offset" />
          </mxGeometry>
        </mxCell>
        <mxCell id="B72tMtw-QqEQN7ghL_KD-44" value="User input" style="rounded=0;whiteSpace=wrap;html=1;" parent="1" vertex="1">
          <mxGeometry x="220" y="-90" width="120" height="60" as="geometry" />
        </mxCell>
        <mxCell id="B72tMtw-QqEQN7ghL_KD-54" style="edgeStyle=orthogonalEdgeStyle;rounded=0;orthogonalLoop=1;jettySize=auto;html=1;entryX=0;entryY=0.5;entryDx=0;entryDy=0;" parent="1" source="B72tMtw-QqEQN7ghL_KD-45" target="B72tMtw-QqEQN7ghL_KD-53" edge="1">
          <mxGeometry relative="1" as="geometry" />
        </mxCell>
        <mxCell id="B72tMtw-QqEQN7ghL_KD-45" value="add position to &lt;br&gt;own list" style="ellipse;whiteSpace=wrap;html=1;" parent="1" vertex="1">
          <mxGeometry x="450" y="-100" width="120" height="80" as="geometry" />
        </mxCell>
        <mxCell id="B72tMtw-QqEQN7ghL_KD-55" style="edgeStyle=orthogonalEdgeStyle;rounded=0;orthogonalLoop=1;jettySize=auto;html=1;entryX=1;entryY=0;entryDx=0;entryDy=0;" parent="1" source="B72tMtw-QqEQN7ghL_KD-53" target="B72tMtw-QqEQN7ghL_KD-24" edge="1">
          <mxGeometry relative="1" as="geometry">
            <Array as="points">
              <mxPoint x="712" y="10" />
              <mxPoint x="712" y="10" />
            </Array>
          </mxGeometry>
        </mxCell>
        <mxCell id="B72tMtw-QqEQN7ghL_KD-53" value="change position table&lt;br&gt;(from default to own)" style="ellipse;whiteSpace=wrap;html=1;" parent="1" vertex="1">
          <mxGeometry x="630" y="-100" width="120" height="80" as="geometry" />
        </mxCell>
        <mxCell id="355qwk3pFSdDTDoqX-rl-1" value="plot the graph" style="ellipse;whiteSpace=wrap;html=1;" vertex="1" parent="1">
          <mxGeometry x="1010" y="140" width="120" height="80" as="geometry" />
        </mxCell>
        <mxCell id="355qwk3pFSdDTDoqX-rl-5" style="edgeStyle=orthogonalEdgeStyle;rounded=0;orthogonalLoop=1;jettySize=auto;html=1;" edge="1" parent="1" source="355qwk3pFSdDTDoqX-rl-3" target="355qwk3pFSdDTDoqX-rl-4">
          <mxGeometry relative="1" as="geometry" />
        </mxCell>
        <mxCell id="355qwk3pFSdDTDoqX-rl-3" value="Save button" style="rounded=0;whiteSpace=wrap;html=1;" vertex="1" parent="1">
          <mxGeometry x="-290" y="550" width="120" height="60" as="geometry" />
        </mxCell>
        <mxCell id="355qwk3pFSdDTDoqX-rl-4" value="Save the laser data" style="ellipse;whiteSpace=wrap;html=1;" vertex="1" parent="1">
          <mxGeometry x="-60" y="540" width="120" height="80" as="geometry" />
        </mxCell>
        <mxCell id="355qwk3pFSdDTDoqX-rl-6" style="edgeStyle=orthogonalEdgeStyle;rounded=0;orthogonalLoop=1;jettySize=auto;html=1;" edge="1" source="355qwk3pFSdDTDoqX-rl-7" target="355qwk3pFSdDTDoqX-rl-8" parent="1">
          <mxGeometry relative="1" as="geometry" />
        </mxCell>
        <mxCell id="355qwk3pFSdDTDoqX-rl-7" value="Load&amp;nbsp; button" style="rounded=0;whiteSpace=wrap;html=1;" vertex="1" parent="1">
          <mxGeometry x="-290" y="650" width="120" height="60" as="geometry" />
        </mxCell>
        <mxCell id="355qwk3pFSdDTDoqX-rl-8" value="Load the laser data" style="ellipse;whiteSpace=wrap;html=1;" vertex="1" parent="1">
          <mxGeometry x="-60" y="640" width="120" height="80" as="geometry" />
        </mxCell>
        <mxCell id="355qwk3pFSdDTDoqX-rl-11" style="edgeStyle=orthogonalEdgeStyle;rounded=0;orthogonalLoop=1;jettySize=auto;html=1;" edge="1" parent="1" source="355qwk3pFSdDTDoqX-rl-9" target="355qwk3pFSdDTDoqX-rl-10">
          <mxGeometry relative="1" as="geometry" />
        </mxCell>
        <mxCell id="355qwk3pFSdDTDoqX-rl-9" value="X, Y,&amp;nbsp; Z (Up and down)&lt;br&gt;button&lt;br&gt; " style="rounded=0;whiteSpace=wrap;html=1;" vertex="1" parent="1">
          <mxGeometry x="-290" y="750" width="120" height="60" as="geometry" />
        </mxCell>
        <mxCell id="355qwk3pFSdDTDoqX-rl-10" value="small movement of Yumi" style="ellipse;whiteSpace=wrap;html=1;" vertex="1" parent="1">
          <mxGeometry x="-60" y="740" width="120" height="80" as="geometry" />
        </mxCell>
        <mxCell id="355qwk3pFSdDTDoqX-rl-14" style="edgeStyle=orthogonalEdgeStyle;rounded=0;orthogonalLoop=1;jettySize=auto;html=1;entryX=0;entryY=0.5;entryDx=0;entryDy=0;" edge="1" parent="1" source="355qwk3pFSdDTDoqX-rl-12" target="355qwk3pFSdDTDoqX-rl-13">
          <mxGeometry relative="1" as="geometry" />
        </mxCell>
        <mxCell id="355qwk3pFSdDTDoqX-rl-12" value="3D plot " style="rounded=0;whiteSpace=wrap;html=1;" vertex="1" parent="1">
          <mxGeometry x="-290" y="860" width="120" height="60" as="geometry" />
        </mxCell>
        <mxCell id="355qwk3pFSdDTDoqX-rl-13" value="It shows the position values (x, y, z)" style="ellipse;whiteSpace=wrap;html=1;" vertex="1" parent="1">
          <mxGeometry x="-50" y="850" width="120" height="80" as="geometry" />
        </mxCell>
      </root>
    </mxGraphModel>
  </diagram>
</mxfile>
